<svg width="85" height="66" viewBox="0 0 85 66" fill="none" xmlns="http://www.w3.org/2000/svg">
<path d="M71.9561 5.91625C66.5385 3.40808 60.7289 1.56017 54.6546 0.5018C54.544 0.481374 54.4335 0.53242 54.3765 0.634515C53.6294 1.97534 52.8018 3.72456 52.2222 5.09944C45.6889 4.11255 39.1892 4.11255 32.7899 5.09944C32.2102 3.694 31.3526 1.97534 30.602 0.634515C30.5451 0.535826 30.4345 0.48478 30.3239 0.5018C24.253 1.55679 18.4434 3.4047 13.0225 5.91625C12.9755 5.93667 12.9353 5.97073 12.9086 6.01494C1.8891 22.6258 -1.12962 38.8284 0.351263 54.8302C0.357964 54.9084 0.401518 54.9833 0.461826 55.0309C7.7322 60.4181 14.7748 63.6886 21.6866 65.8564C21.7972 65.8904 21.9144 65.8496 21.9848 65.7577C23.6198 63.5049 25.0773 61.1294 26.3269 58.6314C26.4006 58.4851 26.3302 58.3116 26.1795 58.2537C23.8678 57.3689 21.6665 56.2901 19.549 55.065C19.3816 54.9663 19.3681 54.7246 19.5222 54.6089C19.9678 54.272 20.4135 53.9214 20.839 53.5675C20.916 53.5029 21.0233 53.4892 21.1138 53.5301C35.0246 59.9383 50.0846 59.9383 63.8313 53.5301C63.9218 53.4858 64.0291 53.4995 64.1094 53.5641C64.535 53.918 64.9806 54.272 65.4295 54.6089C65.5836 54.7246 65.5736 54.9663 65.4061 55.065C63.2886 56.3139 61.0873 57.3689 58.7722 58.2503C58.6215 58.3082 58.5545 58.4851 58.6282 58.6314C59.9047 61.1259 61.3621 63.5014 62.9669 65.7543C63.034 65.8496 63.1545 65.8904 63.2651 65.8564C70.2105 63.6886 77.253 60.4181 84.5234 55.0309C84.5871 54.9833 84.6273 54.9118 84.634 54.8335C86.4063 36.3338 81.6655 20.2641 72.0666 6.01832C72.0431 5.97073 72.003 5.93667 71.9561 5.91625ZM28.4042 45.0868C24.2161 45.0868 20.7653 41.2072 20.7653 36.4427C20.7653 31.6783 24.1492 27.7987 28.4042 27.7987C32.6927 27.7987 36.1102 31.7123 36.0431 36.4427C36.0431 41.2072 32.6592 45.0868 28.4042 45.0868ZM56.6481 45.0868C52.4601 45.0868 49.0092 41.2072 49.0092 36.4427C49.0092 31.6783 52.393 27.7987 56.6481 27.7987C60.9366 27.7987 64.354 31.7123 64.2871 36.4427C64.2871 41.2072 60.9366 45.0868 56.6481 45.0868Z" fill="black"/>
</svg>
