<svg width="83" height="81" viewBox="0 0 83 81" fill="none" xmlns="http://www.w3.org/2000/svg">
<path d="M27.8701 64.9746C27.8701 65.3066 27.4883 65.5723 27.0068 65.5723C26.459 65.6221 26.0772 65.3564 26.0772 64.9746C26.0772 64.6426 26.459 64.377 26.9404 64.377C27.4385 64.3271 27.8701 64.5928 27.8701 64.9746ZM22.707 64.2275C22.5908 64.5596 22.9229 64.9414 23.4209 65.041C23.8525 65.207 24.3506 65.041 24.4502 64.709C24.5498 64.377 24.2344 63.9951 23.7363 63.8457C23.3047 63.7295 22.8232 63.8955 22.707 64.2275ZM30.0449 63.9453C29.5635 64.0615 29.2314 64.377 29.2812 64.7588C29.3311 65.0908 29.7627 65.3066 30.2607 65.1904C30.7422 65.0742 31.0742 64.7588 31.0244 64.4268C30.9746 64.1113 30.5264 63.8955 30.0449 63.9453ZM40.9688 0.328125C17.9424 0.328125 0.328125 17.8096 0.328125 40.8359C0.328125 59.2471 11.916 75.002 28.4678 80.5469C30.5928 80.9287 31.3398 79.6172 31.3398 78.5381C31.3398 77.5088 31.29 71.8311 31.29 68.3447C31.29 68.3447 19.6689 70.835 17.2285 63.3975C17.2285 63.3975 15.3359 58.5664 12.6133 57.3213C12.6133 57.3213 8.81152 54.7148 12.8789 54.7646C12.8789 54.7646 17.0127 55.0967 19.2871 59.0479C22.9229 65.4561 29.0156 63.6133 31.3897 62.5176C31.7715 59.8613 32.8506 58.0186 34.0459 56.9229C24.7656 55.8936 15.4023 54.5488 15.4023 38.5781C15.4023 34.0127 16.6641 31.7217 19.3203 28.7998C18.8887 27.7207 17.4775 23.2715 19.752 17.5273C23.2217 16.4482 31.207 22.0098 31.207 22.0098C34.5273 21.0801 38.0967 20.5986 41.6328 20.5986C45.1689 20.5986 48.7383 21.0801 52.0586 22.0098C52.0586 22.0098 60.0439 16.4316 63.5137 17.5273C65.7881 23.2881 64.377 27.7207 63.9453 28.7998C66.6016 31.7383 68.2285 34.0293 68.2285 38.5781C68.2285 54.5986 58.4502 55.877 49.1699 56.9229C50.6973 58.2344 51.9922 60.7246 51.9922 64.626C51.9922 70.2207 51.9424 77.1436 51.9424 78.5049C51.9424 79.584 52.7061 80.8955 54.8145 80.5137C71.416 75.002 82.6719 59.2471 82.6719 40.8359C82.6719 17.8096 63.9951 0.328125 40.9688 0.328125ZM16.4648 57.5869C16.249 57.7529 16.2988 58.1348 16.5811 58.4502C16.8467 58.7158 17.2285 58.832 17.4443 58.6162C17.6602 58.4502 17.6104 58.0684 17.3281 57.7529C17.0625 57.4873 16.6807 57.3711 16.4648 57.5869ZM14.6719 56.2422C14.5557 56.458 14.7217 56.7236 15.0537 56.8897C15.3193 57.0557 15.6514 57.0059 15.7676 56.7734C15.8838 56.5576 15.7178 56.292 15.3857 56.126C15.0537 56.0264 14.7881 56.0762 14.6719 56.2422ZM20.0508 62.1523C19.7852 62.3682 19.8848 62.8662 20.2666 63.1816C20.6484 63.5635 21.1299 63.6133 21.3457 63.3477C21.5615 63.1318 21.4619 62.6338 21.1299 62.3184C20.7646 61.9365 20.2666 61.8867 20.0508 62.1523ZM18.1582 59.7119C17.8926 59.8779 17.8926 60.3096 18.1582 60.6914C18.4238 61.0732 18.8721 61.2393 19.0879 61.0732C19.3535 60.8574 19.3535 60.4258 19.0879 60.0439C18.8555 59.6621 18.4238 59.4961 18.1582 59.7119Z" fill="black"/>
</svg>
