<svg width="85" height="71" viewBox="0 0 85 71" fill="none" xmlns="http://www.w3.org/2000/svg">
<path d="M76.2626 18.1872C76.3166 18.9422 76.3166 19.6975 76.3166 20.4525C76.3166 43.4822 58.7881 70.0178 26.7513 70.0178C16.8813 70.0178 7.71259 67.1592 0 62.1975C1.40233 62.3591 2.75055 62.4131 4.20684 62.4131C12.3507 62.4131 19.8477 59.6626 25.8344 54.9703C18.1757 54.8084 11.7576 49.7926 9.54623 42.889C10.625 43.0507 11.7036 43.1586 12.8363 43.1586C14.4004 43.1586 15.9646 42.9428 17.4207 42.5654C9.43849 40.9473 3.45163 33.936 3.45163 25.4683V25.2527C5.7707 26.5471 8.46763 27.3561 11.3259 27.4638C6.63365 24.3356 3.55954 18.9962 3.55954 12.9556C3.55954 9.71958 4.42232 6.75321 5.93257 4.16437C14.5081 14.7354 27.3984 21.6388 41.8525 22.394C41.5829 21.0996 41.4211 19.7514 41.4211 18.403C41.4211 8.80268 49.1876 0.982346 58.8417 0.982346C63.8576 0.982346 68.388 3.08576 71.5702 6.48361C75.5072 5.72857 79.2826 4.27228 82.6266 2.27677C81.3321 6.32191 78.5815 9.71975 74.968 11.877C78.4738 11.4996 81.8716 10.5286 84.9997 9.18036C82.627 12.632 79.6604 15.7061 76.2626 18.1872Z" fill="black"/>
</svg>
